# xmcd
#
# Track frame offsets:
#	150
#	10319
#	23217
#	31778
#	43373
#	54076
#	66050
#	75709
#	84782
#	100882
#	119722
#	132767
#	144818
#	155744
#	166965
#	177309
#	188340
#	198810
#	212747
#
# Disc length: 3108 seconds
#
# Revision: 4
# Processed by: cddbd v1.5.2PL0 Copyright (c) Steve Scherf et al.
# Submitted via: EZCDAudioConverter 2.1.7.1
#
DISCID=f00c2213
DTITLE=V/A - Eccentric Soul: The Big Mack Label
DYEAR=2006
DGENRE=Soul
TTITLE0=L. Hollis and The Mackadoos - Bui Bui   
TTITLE1=Edd Henry - Your Replacement Is Here   
TTITLE2=Bob and Fred - I'll Be On My Way  
TTITLE3=Soul President - Got To Have It
TTITLE4=The Performers - Mini Skirt
TTITLE5=Mae Young - The Man Puts Sugar In My Soul
TTITLE6=Grand Prix's - You Drive Me Crazy
TTITLE7=The Manhattens - The Feeling Is Mutual
TTITLE8=Ms. Tyree ''Sugar'' Jones - If You Feel It
TTITLE9=Essence - Fever
TTITLE10=Edd Henry - Crooked Woman
TTITLE11=Soul President - Get It Right
TTITLE12=Mae Young - Let's Give Our Love A Try
TTITLE13=The Manhattens - Why Should I Cry
TTITLE14=Grand Prix's - I See Her Pretty Face
TTITLE15=L. Hollis and The Mackadoos - Monkey Time Shine
TTITLE16=The Sleepwalkers - Mini Skirt [Instrumental]
TTITLE17=Ms. Tyree ''Sugar'' Jones - If You Feel It [Instrumental]
TTITLE18=Essence - Fever [Instrumental]
EXTD=
EXTT0=
EXTT1=
EXTT2=
EXTT3=
EXTT4=
EXTT5=
EXTT6=
EXTT7=
EXTT8=
EXTT9=
EXTT10=
EXTT11=
EXTT12=
EXTT13=
EXTT14=
EXTT15=
EXTT16=
EXTT17=
EXTT18=
PLAYORDER=
